<?xml version="1.0" encoding="utf-8"?>
<svg xmlns="http://www.w3.org/2000/svg" width="14" height="14" viewBox="0 0 14.1629 14.1603">
  <path d="M2,12.16C1.375,11.535 0.885,10.813 0.531,9.994C0.177,9.174 0,8.327 0,7.452C0,6.577 0.167,5.712 0.5,4.858C0.833,4.004 1.375,3.202 2.125,2.452C2.611,1.966 3.212,1.549 3.927,1.202C4.642,0.855 5.49,0.58 6.469,0.379C7.448,0.178 8.566,0.056 9.823,0.014C11.08,-0.027 12.486,0.021 14.042,0.16C14.153,1.632 14.188,2.987 14.146,4.223C14.104,5.459 13.99,6.573 13.802,7.567C13.615,8.56 13.351,9.428 13.01,10.171C12.67,10.914 12.25,11.535 11.75,12.035C11.014,12.771 10.233,13.31 9.406,13.65C8.58,13.99 7.736,14.16 6.875,14.16C5.972,14.16 5.09,13.983 4.229,13.629C3.368,13.275 2.625,12.785 2,12.16M4.333,11.827C4.736,12.063 5.149,12.233 5.573,12.337C5.997,12.442 6.431,12.494 6.875,12.494C7.514,12.494 8.146,12.365 8.771,12.108C9.396,11.851 9.993,11.438 10.562,10.869C10.812,10.619 11.066,10.268 11.323,9.817C11.58,9.365 11.802,8.775 11.99,8.046C12.177,7.317 12.319,6.435 12.417,5.4C12.514,4.365 12.528,3.132 12.458,1.702C11.778,1.674 11.01,1.664 10.156,1.671C9.302,1.678 8.451,1.744 7.604,1.869C6.757,1.994 5.951,2.195 5.188,2.473C4.424,2.751 3.799,3.132 3.312,3.619C2.688,4.244 2.257,4.862 2.021,5.473C1.785,6.084 1.667,6.674 1.667,7.244C1.667,8.063 1.823,8.782 2.135,9.4C2.448,10.018 2.722,10.452 2.958,10.702C3.542,9.591 4.312,8.525 5.271,7.504C6.229,6.483 7.347,5.646 8.625,4.994C7.625,5.869 6.753,6.858 6.01,7.962C5.267,9.067 4.708,10.355 4.333,11.827" fill="#13EC49" />
</svg>