<?xml version="1.0" encoding="utf-8"?>
<svg xmlns="http://www.w3.org/2000/svg" width="320" height="320" viewBox="0 0 320 320">
  <path d="M160,0 A160,160,0,1,1,160,320 A160,160,0,1,1,160,0Z" fill="#13EC49" fill-opacity="0.102" />
  <g transform="translate(8, 72)">
    <path d="M8,0 L72,0 A8,8,0,0,1,80,8 L80,72 A8,8,0,0,1,72,80 L8,80 A8,8,0,0,1,0,72 L0,8 A8,8,0,0,1,8,0Z" fill="#FFFFFF" />
    <g transform="translate(29.5, 25.74)">
      <path d="M10.5 28.5272C7.575 28.5272 5.09375 27.5084 3.05625 25.4709C1.01875 23.4334 0 20.9522 0 18.0272C0 15.6772 0.69375 13.5709 2.08125 11.7084C3.46875 9.84591 5.2875 8.58966 7.5375 7.93966C7.0375 7.81466 6.55 7.63341 6.075 7.39591C5.6 7.15841 5.175 6.85216 4.8 6.47716C3.975 5.65216 3.44375 4.67091 3.20625 3.53341C2.96875 2.39591 2.9125 1.23966 3.0375 0.0646552C4.2125 -0.0603448 5.36875 -0.00409482 6.50625 0.233405C7.64375 0.470905 8.625 1.00216 9.45 1.82716C10.025 2.40216 10.4438 3.05216 10.7063 3.77716C10.9688 4.50216 11.1375 5.26466 11.2125 6.06466C11.5375 5.28966 11.9313 4.55841 12.3938 3.87091C12.8563 3.18341 13.375 2.55216 13.95 1.97716C14.225 1.70216 14.575 1.56466 15 1.56466C15.425 1.56466 15.775 1.70216 16.05 1.97716C16.325 2.25216 16.4625 2.60216 16.4625 3.02716C16.4625 3.45216 16.325 3.80216 16.05 4.07716C15.5 4.62716 15.0125 5.2334 14.5875 5.89591C14.1625 6.55841 13.85 7.26466 13.65 8.01466C15.85 8.71466 17.625 9.9834 18.975 11.8209C20.325 13.6584 21 15.7272 21 18.0272C21 20.9522 19.9813 23.4334 17.9438 25.4709C15.9063 27.5084 13.425 28.5272 10.5 28.5272Z" fill="#13EC49" />
    </g>
  </g>
  <g transform="translate(80, 32)">
    <path d="M40,0 L120,0 A40,40,0,0,1,160,40 L160,216 A40,40,0,0,1,120,256 L40,256 A40,40,0,0,1,0,216 L0,40 A40,40,0,0,1,40,0Z" fill="#0F172A" />
    <path d="M40,2 L120,2 A38,38,0,0,1,158,40 L158,216 A38,38,0,0,1,120,254 L40,254 A38,38,0,0,1,2,216 L2,40 A38,38,0,0,1,40,2Z" fill="#000000" fill-opacity="0" stroke="#1E293B" stroke-width="4" />
    <path d="M49.74,20 L110.26,20 A1.74,1.74,0,0,1,112,21.74 L112,21.74 A1.74,1.74,0,0,1,110.26,23.48 L49.74,23.48 A1.74,1.74,0,0,1,48,21.74 L48,21.74 A1.74,1.74,0,0,1,49.74,20Z" fill="#1E293B" />
    <path d="M32,47.48 L128,47.48 A12,12,0,0,1,140,59.48 L140,223.99 A12,12,0,0,1,128,235.99 L32,235.99 A12,12,0,0,1,20,223.99 L20,59.48 A12,12,0,0,1,32,47.48Z" fill="#FFFFFF" />
    <g transform="translate(57.5, 95.24)">
      <path d="M25 45V40H30V45H25V45M20 40V27.5H25V40H20V40M40 32.5V22.5H45V32.5H40V32.5M35 22.5V17.5H40V22.5H35V22.5M5 27.5V22.5H10V27.5H5V27.5M0 22.5V17.5H5V22.5H0V22.5M22.5 5V0H27.5V5H22.5V5M3.75 11.25H11.25V3.75H3.75V11.25V11.25M0 15V0H15V15H0V15M3.75 41.25H11.25V33.75H3.75V41.25V41.25M0 45V30H15V45H0V45M33.75 11.25H41.25V3.75H33.75V11.25V11.25M30 15V0H45V15H30V15M35 45V37.5H30V32.5H40V40H45V45H35V45M25 27.5V22.5H35V27.5H25V27.5M15 27.5V22.5H10V17.5H25V22.5H20V27.5H15V27.5M17.5 15V5H22.5V10H27.5V15H17.5V15M5.625 9.375V5.625H9.375V9.375H5.625V9.375M5.625 39.375V35.625H9.375V39.375H5.625V39.375M35.625 9.375V5.625H39.375V9.375H35.625V9.375" fill="#0F172A" />
    </g>
    <path d="M44,156.24 L116,156.24 A4,4,0,0,1,120,160.24 L120,160.24 A4,4,0,0,1,116,164.24 L44,164.24 A4,4,0,0,1,40,160.24 L40,160.24 A4,4,0,0,1,44,156.24Z" fill="#E2E8F0" />
    <path d="M60,180.24 L100,180.24 A4,4,0,0,1,104,184.24 L104,184.24 A4,4,0,0,1,100,188.24 L60,188.24 A4,4,0,0,1,56,184.24 L56,184.24 A4,4,0,0,1,60,180.24Z" fill="#F1F5F9" />
  </g>
  <g transform="translate(208, 208)">
    <path d="M12,0 L84,0 A12,12,0,0,1,96,12 L96,84 A12,12,0,0,1,84,96 L12,96 A12,12,0,0,1,0,84 L0,12 A12,12,0,0,1,12,0Z" fill="#13EC49" />
    <g transform="translate(31.5, 36)">
      <path d="M7.5 24C6.25 24 5.1875 23.5625 4.3125 22.6875C3.4375 21.8125 3 20.75 3 19.5H0V3C0 2.175 0.29375 1.46875 0.88125 0.88125C1.46875 0.29375 2.175 0 3 0H24V6H28.5L33 12V19.5H30C30 20.75 29.5625 21.8125 28.6875 22.6875C27.8125 23.5625 26.75 24 25.5 24C24.25 24 23.1875 23.5625 22.3125 22.6875C21.4375 21.8125 21 20.75 21 19.5H12C12 20.75 11.5625 21.8125 10.6875 22.6875C9.8125 23.5625 8.75 24 7.5 24V24M7.5 21C7.925 21 8.28125 20.8563 8.56875 20.5688C8.85625 20.2813 9 19.925 9 19.5C9 19.075 8.85625 18.7187 8.56875 18.4312C8.28125 18.1437 7.925 18 7.5 18C7.075 18 6.71875 18.1437 6.43125 18.4312C6.14375 18.7187 6 19.075 6 19.5C6 19.925 6.14375 20.2813 6.43125 20.5688C6.71875 20.8563 7.075 21 7.5 21V21M3 16.5H4.2C4.625 16.05 5.1125 15.6875 5.6625 15.4125C6.2125 15.1375 6.825 15 7.5 15C8.175 15 8.7875 15.1375 9.3375 15.4125C9.8875 15.6875 10.375 16.05 10.8 16.5H21V3H3V3V3V16.5V16.5M25.5 21C25.925 21 26.2813 20.8563 26.5688 20.5688C26.8563 20.2813 27 19.925 27 19.5C27 19.075 26.8563 18.7187 26.5688 18.4312C26.2813 18.1437 25.925 18 25.5 18C25.075 18 24.7187 18.1437 24.4312 18.4312C24.1437 18.7187 24 19.075 24 19.5C24 19.925 24.1437 20.2813 24.4312 20.5688C24.7187 20.8563 25.075 21 25.5 21V21M24 13.5H30.375L27 9H24V13.5V13.5" fill="#0F172A" />
    </g>
  </g>
</svg>